<svg id="Capa_1" data-name="Capa 1" xmlns="http://www.w3.org/2000/svg" viewBox="0 0 609.1 501"><defs><style>.cls-1{fill:#fff;stroke:#000;}.cls-1,.cls-4{stroke-miterlimit:10;}.cls-2{fill:#ff7d75;}.cls-3{fill:#009672;}.cls-4{fill:none;stroke:#003456;stroke-width:15px;}.cls-5{fill:#ff748f;}.cls-6{fill:#ffb02e;}.cls-7{fill:#009171;}</style></defs><title>logotipo</title><path class="cls-1" d="M929.16,659.33" transform="translate(-195.45 -120.82)"/><path class="cls-2" d="M526.62,617.68V258.27A803.18,803.18,0,0,0,203,183.72V533.58a840.2,840.2,0,0,1,323.67,84.1Z" transform="translate(-195.45 -120.82)"/><path class="cls-3" d="M526.62,258.27,788.91,136.06,797.05,541a721.22,721.22,0,0,0-270.43,76.7Z" transform="translate(-195.45 -120.82)"/><path class="cls-4" d="M797.05,134.64V534a6.31,6.31,0,0,1-5.61,6.28,832.35,832.35,0,0,0-262.15,73.5,6.26,6.26,0,0,1-5.35,0A810.47,810.47,0,0,0,209,537.14a6.29,6.29,0,0,1-6.07-6.31V183.72a6.32,6.32,0,0,1,7.34-6.24,1219.81,1219.81,0,0,1,155.48,35.83,1220.78,1220.78,0,0,1,151.7,56.85,6.33,6.33,0,0,0,6.79-1A648,648,0,0,1,789.12,128.53,6.33,6.33,0,0,1,797.05,134.64Z" transform="translate(-195.45 -120.82)"/><path class="cls-5" d="M267.93,136.06l3.5,347.22A630.43,630.43,0,0,1,526.62,599.21V258.27A440.8,440.8,0,0,0,267.93,136.06Z" transform="translate(-195.45 -120.82)"/><path class="cls-6" d="M526.62,258.27V599.21A690.5,690.5,0,0,1,786.69,483.28l2.22-347.22A409.9,409.9,0,0,0,526.62,258.27Z" transform="translate(-195.45 -120.82)"/><path class="cls-4" d="M515.78,254a15.23,15.23,0,0,0,21.4-.22A432.14,432.14,0,0,1,775.41,131.51a15.24,15.24,0,0,1,17.68,15l1.38,323.47a15.23,15.23,0,0,1-13,15.12A501.87,501.87,0,0,0,534.74,595.69a15.25,15.25,0,0,1-20-.45,442.23,442.23,0,0,0-238.39-110.4,15.21,15.21,0,0,1-13.19-15.09V147.13a15.22,15.22,0,0,1,18.08-15A465,465,0,0,1,515.78,254Z" transform="translate(-195.45 -120.82)"/><path class="cls-5" d="M730.76,211.5" transform="translate(-195.45 -120.82)"/><path class="cls-7" d="M357.19,324.3q64.14,75.56,128.26,151.13a28.88,28.88,0,0,0,18.17,7.82,29.28,29.28,0,0,0,20.94-7.82L732.21,247.34a17.17,17.17,0,0,0-25.74-18.42L510.09,404.53a10.45,10.45,0,0,1-11.94-.17L385.81,296.69c-7.52-7-18.61-7.68-25.92-2.33C351.15,300.73,349.2,314.67,357.19,324.3Z" transform="translate(-195.45 -120.82)"/></svg>